<?xml version="1.0" encoding="utf-8"?>
<!-- Generator: Adobe Illustrator 18.1.0, SVG Export Plug-In . SVG Version: 6.00 Build 0)  -->
<svg version="1.1" id="Layer_1" xmlns="http://www.w3.org/2000/svg" xmlns:xlink="http://www.w3.org/1999/xlink" x="0px" y="0px"
	 viewBox="0 0 128 800" enable-background="new 0 0 128 800" xml:space="preserve">
<g>
	<path fill="#F2F2F2" stroke="#000000" stroke-width="3" stroke-miterlimit="10" d="M31.4,230.4c0-17.7,14.3-32.1,32.1-32.1
		s32.1,14.3,32.1,32.1"/>
	<line fill="none" stroke="#000000" stroke-width="3" stroke-miterlimit="10" x1="19.3" y1="230.4" x2="107.6" y2="230.4"/>
	<line fill="none" stroke="#000000" stroke-width="3" stroke-miterlimit="10" x1="63.5" y1="201.1" x2="63.5" y2="206.9"/>
	<line fill="none" stroke="#000000" stroke-width="3" stroke-miterlimit="10" x1="82.9" y1="209.1" x2="78.8" y2="213.3"/>
	<line fill="none" stroke="#000000" stroke-width="3" stroke-miterlimit="10" x1="43.8" y1="209.3" x2="47.9" y2="213.4"/>
	<line fill="none" stroke="#000000" stroke-width="3" stroke-miterlimit="10" x1="35.5" y1="225.7" x2="41.4" y2="225.7"/>
	<line fill="none" stroke="#000000" stroke-width="3" stroke-miterlimit="10" x1="85.7" y1="225.7" x2="91.5" y2="225.7"/>
</g>
<g enable-background="new    ">
	<path d="M41.4,235.7c1.7,0,2.8,0.3,3.5,0.8c0.6,0.6,1,1.4,1,2.6s-0.2,2.1-0.7,2.7c0.7,0.6,1,1.5,1,2.9c0,2.6-1.5,3.9-4.4,3.9
		c-0.4,0-1.5-0.1-3.4-0.3V236C39.5,235.8,40.5,235.7,41.4,235.7z M40.9,241.1c1,0,1.6-0.1,1.9-0.3c0.3-0.2,0.5-0.7,0.5-1.5
		c0-0.4-0.1-0.8-0.3-1.1s-0.4-0.4-0.6-0.4c-0.9,0-1.5,0.1-1.7,0.2c-0.1,0-0.1,0.1-0.2,0.2v2.8c0,0.1,0,0.2,0.1,0.2
		C40.8,241.1,40.9,241.1,40.9,241.1z M43.4,246.2c0.2-0.2,0.3-0.7,0.3-1.5s-0.1-1.2-0.2-1.3s-0.6-0.2-1.3-0.2c-0.7,0-1.1,0-1.3,0
		c-0.2,0-0.3,0.1-0.3,0.2v2.9c0,0.1,0.1,0.2,0.2,0.2c0.1,0,0.6,0,1.2,0C42.8,246.5,43.2,246.4,43.4,246.2z"/>
	<path d="M51,235.7c0.8,0,1.2,0.2,1.2,0.5l1.1,5l1.1,6.7c0,0.1,0,0.2,0,0.3s0,0.2-0.1,0.2c-0.1,0.1-0.2,0.1-0.6,0.1
		c-1,0-1.5-0.2-1.6-0.6l-0.6-3.4h-2.3L49,248c0,0.2-0.1,0.4-0.1,0.5c0,0.1-0.1,0.1-0.2,0.1c-0.1,0-0.2,0-0.4,0h-0.5
		c-0.4,0-0.6,0-0.7-0.1c-0.2-0.1-0.4-0.2-0.4-0.3c0-0.1,0-0.1,0-0.1c0,0,0.1-0.8,0.3-2.2c0.2-1.4,0.5-3.1,0.8-5
		c0.3-1.9,0.6-3.2,0.7-3.8s0.2-0.9,0.2-1C48.7,235.8,49.5,235.7,51,235.7z M50.6,237.8l-0.8,4.7h1.6L50.6,237.8z"/>
	<path d="M55.7,236.3c0-0.2,0.1-0.4,0.2-0.5c0.1-0.1,0.3-0.1,0.7-0.1c0.8,0,1.2,0.2,1.2,0.6l0.2,4.9l0,5.1h3.2
		c0.5,0,0.8,0.2,0.8,0.6c0,0.7-0.1,1.1-0.3,1.3c-0.1,0.1-0.3,0.1-0.4,0.1H56l-0.3-0.3V236.3z"/>
	<path d="M67,235.7c0.8,0,1.2,0.2,1.2,0.5l1.1,5l1.1,6.7c0,0.1,0,0.2,0,0.3s0,0.2-0.1,0.2c-0.1,0.1-0.2,0.1-0.6,0.1
		c-1,0-1.5-0.2-1.6-0.6l-0.6-3.4h-2.3L65,248c0,0.2-0.1,0.4-0.1,0.5s-0.1,0.1-0.2,0.1s-0.2,0-0.4,0h-0.5c-0.4,0-0.6,0-0.7-0.1
		c-0.2-0.1-0.4-0.2-0.4-0.3c0-0.1,0-0.1,0-0.1c0,0,0.1-0.8,0.3-2.2c0.2-1.4,0.5-3.1,0.8-5c0.3-1.9,0.6-3.2,0.7-3.8
		c0.1-0.6,0.2-0.9,0.2-1C64.7,235.8,65.5,235.7,67,235.7z M66.5,237.8l-0.8,4.7h1.6L66.5,237.8z"/>
	<path d="M71.7,247.9v-11.6c0-0.4,0.4-0.6,1.2-0.6c0.2,0,0.3,0,0.4,0c0.1,0,0.2,0.1,0.4,0.2c0.1,0.1,0.3,0.2,0.4,0.4l2.9,6.9
		l-0.1-6.9c0-0.4,0.4-0.6,1.2-0.6c0.3,0,0.6,0,0.7,0.1c0.1,0.1,0.2,0.2,0.2,0.5l0.3,4.9v6.7c0,0.2,0,0.3,0,0.4
		c0,0.2-0.3,0.2-0.6,0.2c-0.7,0-1.1-0.2-1.3-0.6l-3.2-6.8l0,6.8c0,0.2,0,0.3,0,0.4c0,0.2-0.3,0.2-0.6,0.2
		C72.3,248.6,71.7,248.4,71.7,247.9z"/>
	<path d="M80.3,246.5c0-0.1,0.1-0.4,0.4-0.6c0.3-0.3,0.4-0.4,0.5-0.4s0.2,0,0.2,0s0.2,0,0.4,0.1c0.8,0.6,1.5,1,2.1,1s1-0.1,1.2-0.4
		c0.2-0.3,0.3-0.7,0.3-1.1s-0.2-0.8-0.5-1.1c-0.3-0.3-0.9-0.6-1.6-1c-0.7-0.4-1.4-0.9-2-1.6c-0.6-0.6-0.8-1.3-0.8-2
		c0-1.2,0.3-2.1,1-2.7c0.6-0.6,1.6-0.8,2.8-0.8c0.8,0,1.5,0.2,2.2,0.5c0.4,0.2,0.6,0.3,0.5,0.5c0,0.1,0,0.2,0,0.3
		c-0.2,0.6-0.4,0.9-0.5,1c0,0-0.1,0-0.2,0c-0.1,0-0.4-0.1-0.9-0.3s-0.9-0.3-1.3-0.3s-0.6,0.1-0.9,0.4s-0.3,0.6-0.3,1
		c0,0.4,0.2,0.8,0.6,1.2s1,0.7,1.8,1.1c0.9,0.4,1.5,0.9,1.9,1.4c0.4,0.5,0.6,1.1,0.6,1.9c0,2.7-1.1,4-3.4,4c-1.7,0-3-0.5-3.9-1.5
		C80.5,246.8,80.3,246.6,80.3,246.5z"/>
</g>
<g id="Needle">
	<path stroke="#231F20" stroke-width="3" stroke-miterlimit="10" d="M66.6,230.3c-0.6,2-3,2.7-4.9,1.9c-1.9-0.8-3-3.1-1.9-4.9
		c2-3.5,9.7-13.1,9.7-13.1S67.8,226.4,66.6,230.3z"/>
</g>
<rect x="11.6" y="256.7" fill="none" width="104.9" height="47.5"/>
<text transform="matrix(1 0 0 1 16.5098 261.3396)" font-family="'ArialMT'" font-size="6.5641">Ditt värmesystem är förnärvarande </text>
<text transform="matrix(1 0 0 1 18.3692 269.2168)" font-family="'ArialMT'" font-size="6.5641">obalancerat. Klicka här för att läsa </text>
<text transform="matrix(1 0 0 1 18.5334 277.0934)" font-family="'ArialMT'" font-size="6.5641">mera om hur man åtgärdar detta. </text>
<text transform="matrix(1 0 0 1 14.2121 292.8472)" font-family="'ArialMT'" font-size="6.5641">Besparingspotensialen för att korrig</text>
<text transform="matrix(1 0 0 1 111.9084 292.8472)" font-family="'ArialMT'" font-size="6.5641">-</text>
<text transform="matrix(1 0 0 1 39.0464 300.7242)" font-family="'ArialMT'" font-size="6.5641">era detta är ca 5%.</text>
<path fill="none" stroke="#000000" stroke-width="2" stroke-miterlimit="10" d="M112.7,313.1H14.6c-7,0-12.7-5.7-12.7-12.7V196.7
	c0-7.1,5.7-12.7,12.7-12.7h98.1c7,0,12.7,5.7,12.7,12.7v103.7C125.5,307.4,119.8,313.1,112.7,313.1z"/>
<path fill="none" stroke="#000000" stroke-width="2" stroke-miterlimit="10" d="M113.1,448.2H15c-7,0-12.7-5.7-12.7-12.7V331.8
	c0-7,5.7-12.7,12.7-12.7h98.1c7,0,12.7,5.7,12.7,12.7v103.7C125.9,442.6,120.2,448.2,113.1,448.2z"/>
<g enable-background="new    ">
	<path d="M35.5,355.1c0.7,0,1.1,0.2,1.1,0.5c0,0.1,0,0.1,0,0.2l-2.8,11.6c-0.1,0.3-0.1,0.4-0.2,0.5c-0.1,0.1-0.4,0.1-0.8,0.1
		c-1,0-1.6-0.2-1.7-0.6l-3.2-11.6c0,0,0-0.1,0-0.1c0-0.3,0.4-0.5,1.1-0.5c0.4,0,0.6,0,0.8,0.1c0.2,0.1,0.3,0.3,0.4,0.5l2.2,8.7
		l2-8.8c0-0.2,0.1-0.4,0.3-0.5S35.2,355.1,35.5,355.1z"/>
	<path d="M40.5,355.1c0.8,0,1.2,0.2,1.2,0.5l1.1,5l1.1,6.7c0,0.1,0,0.2,0,0.3s0,0.2-0.1,0.2c-0.1,0.1-0.2,0.1-0.6,0.1
		c-1,0-1.5-0.2-1.6-0.6l-0.6-3.4h-2.3l-0.5,3.4c0,0.2-0.1,0.4-0.1,0.5c0,0.1-0.1,0.1-0.2,0.1c-0.1,0-0.2,0-0.4,0h-0.5
		c-0.4,0-0.6,0-0.7-0.1c-0.2-0.1-0.4-0.2-0.4-0.3c0-0.1,0-0.1,0-0.1c0,0,0.1-0.8,0.3-2.2c0.2-1.4,0.5-3.1,0.8-5
		c0.3-1.9,0.6-3.2,0.7-3.8s0.2-0.9,0.2-1C38.1,355.2,38.9,355.1,40.5,355.1z M40,357.2l-0.8,4.7h1.6L40,357.2z"/>
	<path d="M45.2,367.3v-11.9c1.1-0.2,2.1-0.3,2.9-0.3c1.5,0,2.6,0.3,3.2,0.9c0.6,0.6,0.9,1.5,0.9,2.8c0,1.8-0.5,3.1-1.5,3.7l2.1,4.7
		c0.1,0.3,0.2,0.5,0.2,0.5s0,0.1,0,0.2c0,0.1-0.2,0.1-0.6,0.1c-1.1,0-1.7-0.2-1.9-0.6l-1.9-4.3c-0.3,0-0.7,0-1.2,0v4.2
		c0,0.3,0,0.5-0.1,0.6s-0.2,0.1-0.6,0.1C45.6,368,45.2,367.7,45.2,367.3z M47.5,360.8c0.9,0,1.5-0.1,1.8-0.4s0.5-0.8,0.5-1.7
		c0-0.5-0.1-0.9-0.3-1.2c-0.2-0.3-0.4-0.5-0.6-0.5c-0.8,0-1.2,0-1.4,0c-0.2,0-0.3,0.1-0.3,0.3v3.1c0,0.1,0,0.2,0.1,0.2
		C47.4,360.8,47.4,360.8,47.5,360.8z"/>
	<path d="M54.1,365.7h0.6v-8.4h-0.5c-0.2,0-0.4-0.1-0.4-0.2c-0.1-0.2-0.1-0.4-0.1-0.8c0-0.6,0.2-0.9,0.5-0.9h2.9
		c0.5,0,0.7,0.2,0.7,0.5c0,1-0.2,1.5-0.6,1.5h-0.4l0.2,3.3l0,5.1h0.5c0.4,0,0.6,0.2,0.6,0.5c0,1-0.3,1.5-0.8,1.5h-3.1
		c-0.2,0-0.3-0.1-0.4-0.2c-0.1-0.2-0.1-0.4-0.1-0.9C53.7,366,53.8,365.7,54.1,365.7z"/>
	<path d="M63.4,355.1c0.8,0,1.2,0.2,1.2,0.5l1.1,5l1.1,6.7c0,0.1,0,0.2,0,0.3s0,0.2-0.1,0.2c-0.1,0.1-0.2,0.1-0.6,0.1
		c-1,0-1.5-0.2-1.6-0.6l-0.6-3.4h-2.3l-0.5,3.4c0,0.2-0.1,0.4-0.1,0.5c0,0.1-0.1,0.1-0.2,0.1c-0.1,0-0.2,0-0.4,0h-0.5
		c-0.4,0-0.6,0-0.7-0.1c-0.2-0.1-0.4-0.2-0.4-0.3c0-0.1,0-0.1,0-0.1c0,0,0.1-0.8,0.3-2.2c0.2-1.4,0.5-3.1,0.8-5
		c0.3-1.9,0.6-3.2,0.7-3.8s0.2-0.9,0.2-1C61,355.2,61.8,355.1,63.4,355.1z M62.9,357.2l-0.8,4.7h1.6L62.9,357.2z"/>
	<path d="M68.9,367.4v-10h-2.1c-0.3,0-0.4-0.1-0.5-0.2c-0.1-0.2-0.1-0.4-0.1-0.8c0-0.6,0.2-0.9,0.6-0.9h6c0.6,0,1,0.2,1,0.5
		c0,1-0.3,1.5-0.8,1.5l-1.8,0l0.1,3.3l0,6.7c0,0.2,0,0.3,0,0.4c0,0.2-0.3,0.2-0.6,0.2C69.5,368,68.9,367.8,68.9,367.4z"/>
	<path d="M74.8,365.7h0.6v-8.4h-0.5c-0.2,0-0.4-0.1-0.4-0.2c-0.1-0.2-0.1-0.4-0.1-0.8c0-0.6,0.2-0.9,0.5-0.9h2.9
		c0.5,0,0.7,0.2,0.7,0.5c0,1-0.2,1.5-0.6,1.5h-0.4l0.2,3.3l0,5.1h0.5c0.4,0,0.6,0.2,0.6,0.5c0,1-0.3,1.5-0.8,1.5h-3.1
		c-0.2,0-0.3-0.1-0.4-0.2c-0.1-0.2-0.1-0.4-0.1-0.9C74.3,366,74.5,365.7,74.8,365.7z"/>
	<path d="M79.7,361.6c0-1.7,0.1-3.1,0.4-4c0.3-0.9,0.7-1.6,1.3-2c0.6-0.4,1.5-0.6,2.6-0.6s2,0.2,2.6,0.6s1,1,1.3,1.9
		c0.3,0.9,0.4,2.3,0.4,4c0,2.4-0.3,4.1-0.9,5c-0.6,0.9-1.7,1.4-3.4,1.4c-1.6,0-2.8-0.5-3.4-1.4S79.7,364,79.7,361.6z M82.5,358.6
		c-0.1,0.4-0.1,0.8-0.1,1.2c0,0.4,0,1.1,0,2.1c0,1,0,1.8,0.1,2.5c0.1,0.7,0.2,1.1,0.3,1.3s0.3,0.3,0.4,0.3c1,0,1.6-0.1,1.9-0.3
		c0.1-0.1,0.2-0.2,0.3-0.4s0.2-0.4,0.2-0.5s0.1-0.5,0.1-0.8c0-0.5,0.1-1.3,0.1-2.5s0-2.2-0.1-2.9c-0.1-0.7-0.1-1.2-0.3-1.4
		c-0.1-0.3-0.3-0.4-0.5-0.4c-0.4,0-0.8,0-1.1,0.1c-0.3,0-0.5,0.1-0.7,0.3c-0.2,0.1-0.4,0.3-0.5,0.5
		C82.6,357.8,82.5,358.1,82.5,358.6z"/>
	<path d="M89.7,367.3v-11.6c0-0.4,0.4-0.6,1.2-0.6c0.2,0,0.3,0,0.4,0c0.1,0,0.2,0.1,0.4,0.2c0.1,0.1,0.3,0.2,0.4,0.4l2.9,6.9
		l-0.1-6.9c0-0.4,0.4-0.6,1.2-0.6c0.3,0,0.6,0,0.7,0.1c0.1,0.1,0.2,0.2,0.2,0.5l0.3,4.9v6.7c0,0.2,0,0.3,0,0.4
		c0,0.2-0.3,0.2-0.6,0.2c-0.7,0-1.1-0.2-1.3-0.6l-3.2-6.8l0,6.8c0,0.2,0,0.3,0,0.4c0,0.2-0.3,0.2-0.6,0.2
		C90.2,368,89.7,367.7,89.7,367.3z"/>
</g>
<g>
	<g>
		<path d="M36.9,350.3c1.3-1.9,2.6-3.8,3.8-5.6c1.4-2.1,2.7-4.5,4.9-6c6.3-4.2,6.9,4,9.5,7.3c1.3,1.7,3.9,2.8,5.9,1.5
			c1.1-0.8,1.4-2,1.7-3.3c0.7-2.4,1.6-4.6,3.1-6.5c2-2.6,4.6-3.9,7.3-1.2c1.4,1.5,2.2,3.3,3.3,5c1.4,2.2,3.4,4.7,6.3,4.6
			c5.7-0.2,5.7-9,10.9-9.4c1-0.1,1-1.7,0-1.6c-2.3,0.2-3.8,1.6-5.1,3.4c-1.7,2.5-3.9,7.5-7.7,5.4c-3.6-2-4.2-6.9-7.3-9.5
			c-2.5-2-5.2-1.6-7.4,0.5c-1.4,1.3-2.5,2.9-3.3,4.6c-0.4,0.8-0.8,1.7-1.1,2.5c-0.5,1.7-0.3,2.2-2,3.3c-0.7,1-1.5,1.1-2.3,0.4
			c-0.8-0.6-1.3-1.4-1.7-2.2c-0.5-1-0.8-2.1-1.2-3.2c-0.6-1.4-1.3-2.7-2.6-3.6c-7.2-4.9-13.5,8.3-16.4,12.5
			C35,350.3,36.4,351.1,36.9,350.3L36.9,350.3z"/>
	</g>
</g>
<rect x="9.2" y="379.3" fill="none" width="104.9" height="59.7"/>
<text transform="matrix(1 0 0 1 11.5781 383.9463)" font-family="'ArialMT'" font-size="6.5641">Ditt värmesystem har för närvarande </text>
<text transform="matrix(1 0 0 1 12.1255 391.8234)" font-family="'ArialMT'" font-size="6.5641">stora variationer i innomhus värmen </text>
<text transform="matrix(1 0 0 1 11.1955 399.7001)" font-family="'ArialMT'" font-size="6.5641">beroende på vädret. Klicka här för att </text>
<text transform="matrix(1 0 0 1 10.211 407.5772)" font-family="'ArialMT'" font-size="6.5641">läsa mera om hur man åtgärdar detta. </text>
<text transform="matrix(1 0 0 1 11.7971 423.331)" font-family="'ArialMT'" font-size="6.5641">Besparingspotensialen för att korrig</text>
<text transform="matrix(1 0 0 1 109.4931 423.331)" font-family="'ArialMT'" font-size="6.5641">-</text>
<text transform="matrix(1 0 0 1 34.9355 431.208)" font-family="'ArialMT'" font-size="6.5641">era detta är ca 10%.</text>
</svg>
