<?xml version="1.0" encoding="utf-8"?>
<!-- Generator: Adobe Illustrator 18.1.0, SVG Export Plug-In . SVG Version: 6.00 Build 0)  -->
<svg version="1.1" id="Layer_1" xmlns="http://www.w3.org/2000/svg" xmlns:xlink="http://www.w3.org/1999/xlink" x="0px" y="0px"
	 width="256" height="800" viewBox="-12.2 0 256 800" enable-background="new -12.2 0 256 800" xml:space="preserve">
<g>
	<path fill="#F2F2F2" stroke="#000000" stroke-width="3" stroke-miterlimit="10" d="M56.3,90.6c0-32.7,26.4-59.1,59.1-59.1
		s59.1,26.4,59.1,59.1"/>
	<line fill="none" stroke="#000000" stroke-width="3" stroke-miterlimit="10" x1="34" y1="90.6" x2="196.7" y2="90.6"/>
	<line fill="none" stroke="#000000" stroke-width="3" stroke-miterlimit="10" x1="115.3" y1="36.5" x2="115.3" y2="47.2"/>
	<line fill="none" stroke="#000000" stroke-width="3" stroke-miterlimit="10" x1="151.1" y1="51.4" x2="143.6" y2="59.1"/>
	<line fill="none" stroke="#000000" stroke-width="3" stroke-miterlimit="10" x1="79" y1="51.7" x2="86.6" y2="59.3"/>
	<line fill="none" stroke="#000000" stroke-width="3" stroke-miterlimit="10" x1="63.8" y1="82" x2="74.6" y2="82"/>
	<line fill="none" stroke="#000000" stroke-width="3" stroke-miterlimit="10" x1="156.3" y1="82" x2="166.9" y2="82"/>
</g>
<g enable-background="new    ">
	<path d="M74.7,100.3c3.1,0,5.2,0.5,6.4,1.5c1.2,1,1.8,2.6,1.8,4.8c0,2.2-0.4,3.8-1.3,4.9c1.3,1,1.9,2.8,1.9,5.3
		c0,4.8-2.7,7.1-8.2,7.1c-0.6,0-2.8-0.2-6.3-0.5v-22.7C71.1,100.5,73,100.3,74.7,100.3z M73.8,110.2c1.8,0,2.9-0.2,3.6-0.6
		c0.6-0.4,1-1.4,1-2.8c0-0.8-0.2-1.5-0.5-2c-0.4-0.5-0.7-0.8-1.1-0.8c-1.7,0-2.8,0.1-3.1,0.3c-0.1,0.1-0.2,0.2-0.3,0.4v5.1
		c0,0.2,0,0.4,0.1,0.4C73.5,110.2,73.7,110.2,73.8,110.2z M78.4,119.6c0.4-0.4,0.6-1.3,0.6-2.7s-0.2-2.2-0.5-2.5
		c-0.3-0.3-1.1-0.4-2.3-0.4c-1.3,0-2.1,0-2.4,0.1c-0.3,0-0.5,0.2-0.5,0.4v5.4c0,0.2,0.1,0.4,0.4,0.4c0.3,0,1,0.1,2.3,0.1
		C77.2,120.3,78,120.1,78.4,119.6z"/>
	<path d="M92.5,100.3c1.4,0,2.1,0.3,2.3,0.9l2.1,9.3l2.1,12.4c0,0.2,0.1,0.4,0.1,0.6s-0.1,0.3-0.2,0.4c-0.1,0.1-0.4,0.2-1,0.2
		c-1.8,0-2.8-0.4-2.9-1.1l-1.1-6.2h-4.2l-0.9,6.3c-0.1,0.4-0.1,0.7-0.2,0.8c-0.1,0.1-0.2,0.2-0.4,0.2c-0.2,0-0.4,0-0.8,0h-0.8
		c-0.7,0-1.2,0-1.3-0.1c-0.4-0.2-0.7-0.3-0.8-0.5c0-0.1,0-0.2,0-0.3c0-0.1,0.2-1.4,0.6-4c0.4-2.6,0.9-5.7,1.6-9.2
		c0.6-3.6,1-5.9,1.2-7s0.3-1.7,0.3-1.9C88.1,100.5,89.6,100.3,92.5,100.3z M91.6,104.3l-1.4,8.7h3L91.6,104.3z"/>
	<path d="M101.1,101.5c0-0.4,0.1-0.7,0.3-0.9c0.2-0.2,0.6-0.2,1.2-0.2c1.5,0,2.2,0.4,2.2,1.1l0.5,9.1l0,9.4h5.9c1,0,1.5,0.4,1.5,1.1
		c0,1.3-0.2,2.1-0.6,2.4c-0.2,0.1-0.5,0.2-0.8,0.2h-9.7l-0.5-0.5V101.5z"/>
	<path d="M121.9,100.3c1.4,0,2.1,0.3,2.3,0.9l2.1,9.3l2.1,12.4c0,0.2,0.1,0.4,0.1,0.6s-0.1,0.3-0.2,0.4c-0.1,0.1-0.4,0.2-1,0.2
		c-1.8,0-2.7-0.4-2.9-1.1l-1.1-6.2H119l-0.9,6.3c-0.1,0.4-0.1,0.7-0.2,0.8s-0.2,0.2-0.4,0.2c-0.2,0-0.4,0-0.8,0h-0.8
		c-0.7,0-1.2,0-1.3-0.1c-0.4-0.2-0.7-0.3-0.8-0.5c0-0.1,0-0.2,0-0.3c0-0.1,0.2-1.4,0.6-4c0.4-2.6,0.9-5.7,1.6-9.2
		c0.6-3.6,1-5.9,1.2-7c0.2-1.1,0.3-1.7,0.3-1.9C117.5,100.5,119,100.3,121.9,100.3z M121,104.3l-1.4,8.7h3L121,104.3z"/>
	<path d="M130.6,122.8v-21.4c0-0.7,0.7-1.1,2.2-1.1c0.3,0,0.5,0,0.7,0c0.2,0,0.4,0.1,0.6,0.3c0.3,0.2,0.5,0.4,0.7,0.7l5.4,12.7
		l-0.2-12.7c0-0.7,0.7-1.1,2.2-1.1c0.6,0,1,0.1,1.2,0.2c0.2,0.1,0.3,0.4,0.4,0.9l0.5,9.1v12.4c0,0.3,0,0.6,0,0.7
		c-0.1,0.3-0.5,0.4-1.2,0.4c-1.3,0-2.1-0.4-2.4-1.1l-6-12.6l0,12.5c0,0.4,0,0.6,0,0.7c-0.1,0.3-0.5,0.4-1.2,0.4
		C131.6,124.1,130.6,123.7,130.6,122.8z"/>
	<path d="M146.4,120.2c0-0.3,0.2-0.6,0.7-1.1c0.5-0.5,0.8-0.7,0.9-0.8c0.2,0,0.3-0.1,0.4-0.1s0.4,0.1,0.7,0.3
		c1.5,1.2,2.8,1.8,3.9,1.8s1.9-0.3,2.2-0.8c0.3-0.5,0.5-1.2,0.5-2.1c0-0.8-0.3-1.5-0.9-2.1c-0.6-0.5-1.6-1.2-3-1.9
		c-1.4-0.7-2.6-1.7-3.6-2.9c-1-1.2-1.5-2.4-1.5-3.7c0-2.3,0.6-3.9,1.8-4.9c1.2-1,2.9-1.6,5.2-1.6c1.4,0,2.8,0.3,4.1,1
		c0.7,0.3,1,0.6,1,0.9c0,0.1,0,0.3-0.1,0.5c-0.4,1.1-0.7,1.7-0.9,1.9c-0.1,0-0.2,0.1-0.4,0.1c-0.2,0-0.8-0.2-1.7-0.5
		c-0.9-0.3-1.7-0.5-2.3-0.5c-0.6,0-1.2,0.2-1.6,0.7s-0.6,1.1-0.6,1.9c0,0.8,0.4,1.5,1.1,2.2s1.8,1.3,3.4,2c1.6,0.8,2.8,1.7,3.6,2.6
		c0.8,0.9,1.2,2.1,1.2,3.6c0,5-2.1,7.4-6.3,7.4c-3.1,0-5.5-0.9-7.2-2.7C146.7,120.8,146.4,120.4,146.4,120.2z"/>
</g>
<g id="Needle">
	<path stroke="#231F20" stroke-width="3" stroke-miterlimit="10" d="M121.2,90.3c-1.1,3.6-5.5,5-9,3.5c-3.4-1.5-5.4-5.7-3.5-9
		c3.7-6.5,17.9-24.1,17.9-24.1S123.3,83.2,121.2,90.3z"/>
</g>
<rect x="19.8" y="139" fill="none" width="193.3" height="87.5"/>
<text transform="matrix(1 0 0 1 28.8125 147.5894)" font-family="'ArialMT'" font-size="12.0972">Ditt värmesystem är förnärvarande </text>
<text transform="matrix(1 0 0 1 32.2397 162.1055)" font-family="'ArialMT'" font-size="12.0972">obalancerat. Klicka här för att läsa </text>
<text transform="matrix(1 0 0 1 32.5415 176.6226)" font-family="'ArialMT'" font-size="12.0972">mera om hur man åtgärdar detta. </text>
<text transform="matrix(1 0 0 1 24.5776 205.6548)" font-family="'ArialMT'" font-size="12.0972">Besparingspotensialen för att korrig</text>
<text transform="matrix(1 0 0 1 204.625 205.6548)" font-family="'ArialMT'" font-size="12.0972">-</text>
<text transform="matrix(1 0 0 1 70.3467 220.1724)" font-family="'ArialMT'" font-size="12.0972">era detta är ca 5%.</text>
<path fill="none" stroke="#000000" stroke-width="2" stroke-miterlimit="10" d="M206.2,242.9H25.3c-12.9,0-23.4-10.5-23.4-23.4V28.4
	c0-13,10.5-23.5,23.4-23.5h180.9c12.9,0,23.4,10.5,23.4,23.4v191.1C229.6,232.5,219.2,242.9,206.2,242.9z"/>
<path fill="none" stroke="#000000" stroke-width="2" stroke-miterlimit="10" d="M206.9,492H26c-12.9,0-23.4-10.5-23.4-23.4V277.4
	C2.6,264.5,13.1,254,26,254h180.9c12.9,0,23.4,10.5,23.4,23.4v191.1C230.3,481.6,219.9,492,206.9,492z"/>
<g enable-background="new    ">
	<path d="M63.8,320.4c1.4,0,2,0.3,2,0.9c0,0.1,0,0.2,0,0.3L60.7,343c-0.1,0.5-0.2,0.8-0.4,0.9c-0.2,0.1-0.6,0.2-1.5,0.2
		c-1.9,0-2.9-0.4-3.1-1.1l-5.9-21.4c0-0.1,0-0.2,0-0.2c0-0.6,0.7-0.9,2.1-0.9c0.7,0,1.2,0.1,1.6,0.3c0.4,0.2,0.6,0.5,0.7,1l4.1,16.1
		l3.6-16.3c0.1-0.4,0.3-0.7,0.5-0.9C62.7,320.5,63.2,320.4,63.8,320.4z"/>
	<path d="M73,320.3c1.4,0,2.1,0.3,2.3,0.9l2.1,9.3l2.1,12.4c0,0.2,0.1,0.4,0.1,0.6c0,0.2-0.1,0.3-0.2,0.4c-0.1,0.1-0.4,0.2-1,0.2
		c-1.8,0-2.8-0.4-2.9-1.1l-1.1-6.2h-4.2l-0.9,6.3c-0.1,0.4-0.1,0.7-0.2,0.8c-0.1,0.1-0.2,0.2-0.4,0.2c-0.2,0-0.4,0-0.8,0h-0.8
		c-0.7,0-1.2,0-1.3-0.1c-0.4-0.2-0.7-0.3-0.8-0.5c0-0.1,0-0.2,0-0.3c0-0.1,0.2-1.4,0.6-4c0.4-2.6,0.9-5.7,1.6-9.2
		c0.6-3.6,1-5.9,1.2-7c0.2-1.1,0.3-1.7,0.3-1.9C68.6,320.6,70.1,320.3,73,320.3z M72.1,324.3l-1.4,8.7h3L72.1,324.3z"/>
	<path d="M81.6,342.9v-22c2.1-0.3,3.8-0.5,5.4-0.5c2.8,0,4.7,0.5,5.8,1.6c1.1,1,1.6,2.8,1.6,5.2c0,3.4-0.9,5.6-2.8,6.8l3.8,8.6
		c0.2,0.5,0.3,0.8,0.3,1c0,0.2,0,0.2-0.1,0.3c-0.1,0.2-0.4,0.3-1,0.3c-2,0-3.1-0.4-3.4-1.1l-3.4-8c-0.5,0-1.3,0.1-2.3,0.1v7.8
		c0,0.6-0.1,0.9-0.2,1.1c-0.1,0.1-0.5,0.2-1,0.2C82.5,344.1,81.6,343.7,81.6,342.9z M85.9,330.9c1.6,0,2.7-0.2,3.3-0.7
		c0.6-0.5,0.8-1.5,0.8-3.1c0-1-0.2-1.7-0.5-2.3c-0.3-0.6-0.7-0.8-1-0.8c-1.4,0-2.3,0-2.6,0.1c-0.3,0.1-0.5,0.3-0.5,0.6v5.7
		c0,0.3,0.1,0.4,0.2,0.4C85.7,330.9,85.8,330.9,85.9,330.9z"/>
	<path d="M98.1,339.9h1.1v-15.5h-0.9c-0.4,0-0.7-0.2-0.8-0.4c-0.1-0.3-0.2-0.8-0.2-1.5c0-1.1,0.3-1.7,1-1.7h5.4
		c0.9,0,1.3,0.3,1.3,0.9c0,1.8-0.4,2.7-1.1,2.7h-0.8l0.3,6l0,9.4h0.9c0.7,0,1.1,0.3,1.1,1c0,1.8-0.5,2.7-1.5,2.7h-5.7
		c-0.4,0-0.6-0.2-0.8-0.4c-0.1-0.3-0.2-0.8-0.2-1.6C97.3,340.5,97.6,339.9,98.1,339.9z"/>
	<path d="M115.2,320.3c1.4,0,2.1,0.3,2.3,0.9l2.1,9.3l2.1,12.4c0,0.2,0.1,0.4,0.1,0.6c0,0.2-0.1,0.3-0.2,0.4c-0.1,0.1-0.4,0.2-1,0.2
		c-1.8,0-2.8-0.4-2.9-1.1l-1.1-6.2h-4.2l-0.9,6.3c-0.1,0.4-0.1,0.7-0.2,0.8c-0.1,0.1-0.2,0.2-0.4,0.2c-0.2,0-0.4,0-0.8,0h-0.8
		c-0.7,0-1.2,0-1.3-0.1c-0.4-0.2-0.7-0.3-0.8-0.5c0-0.1,0-0.2,0-0.3c0-0.1,0.2-1.4,0.6-4c0.4-2.6,0.9-5.7,1.6-9.2
		c0.6-3.6,1-5.9,1.2-7c0.2-1.1,0.3-1.7,0.3-1.9C110.8,320.6,112.3,320.3,115.2,320.3z M114.3,324.3l-1.4,8.7h3L114.3,324.3z"/>
	<path d="M125.4,343v-18.5h-3.8c-0.5,0-0.8-0.2-0.9-0.4c-0.2-0.3-0.3-0.8-0.3-1.5c0-1.1,0.3-1.7,1-1.7h11c1.2,0,1.8,0.3,1.8,0.9
		c0,1.8-0.5,2.7-1.5,2.7l-3.4,0l0.3,6.1l0,12.3c0,0.4,0,0.6,0,0.8c-0.1,0.3-0.5,0.4-1.2,0.4C126.4,344.1,125.4,343.7,125.4,343z"/>
	<path d="M136.2,339.9h1.1v-15.5h-0.9c-0.4,0-0.7-0.2-0.8-0.4c-0.1-0.3-0.2-0.8-0.2-1.5c0-1.1,0.3-1.7,1-1.7h5.4
		c0.9,0,1.3,0.3,1.3,0.9c0,1.8-0.4,2.7-1.1,2.7h-0.8l0.3,6l0,9.4h0.9c0.7,0,1.1,0.3,1.1,1c0,1.8-0.5,2.7-1.5,2.7h-5.7
		c-0.4,0-0.6-0.2-0.8-0.4c-0.1-0.3-0.2-0.8-0.2-1.6C135.3,340.5,135.6,339.9,136.2,339.9z"/>
	<path d="M145.3,332.4c0-3.2,0.3-5.7,0.8-7.4c0.5-1.7,1.3-2.9,2.4-3.6c1.1-0.7,2.7-1,4.8-1c2.1,0,3.7,0.3,4.8,1
		c1.1,0.7,1.9,1.9,2.4,3.6c0.5,1.7,0.7,4.2,0.7,7.4c0,4.4-0.6,7.5-1.7,9.2c-1.1,1.7-3.2,2.5-6.2,2.5c-3,0-5.1-0.8-6.2-2.5
		C145.9,339.9,145.3,336.8,145.3,332.4z M150.4,326.7c-0.1,0.8-0.2,1.5-0.2,2.3c0,0.8,0,2.1,0,3.9c0,1.9,0.1,3.4,0.2,4.7
		c0.1,1.3,0.3,2.1,0.5,2.5c0.2,0.4,0.5,0.6,0.8,0.6c1.8,0,2.9-0.2,3.5-0.5c0.2-0.1,0.4-0.4,0.6-0.7c0.2-0.3,0.3-0.7,0.4-1
		c0.1-0.3,0.2-0.8,0.2-1.5c0.1-0.9,0.1-2.4,0.1-4.7s-0.1-4-0.2-5.3c-0.1-1.3-0.3-2.2-0.5-2.7c-0.2-0.5-0.5-0.7-0.8-0.7
		c-0.8,0-1.5,0-1.9,0.1c-0.5,0.1-0.9,0.2-1.3,0.5c-0.4,0.3-0.7,0.6-0.8,0.9C150.7,325.4,150.5,326,150.4,326.7z"/>
	<path d="M163.6,342.9v-21.4c0-0.7,0.7-1.1,2.2-1.1c0.3,0,0.5,0,0.7,0c0.2,0,0.4,0.1,0.6,0.3c0.3,0.2,0.5,0.4,0.7,0.7l5.4,12.7
		l-0.2-12.7c0-0.7,0.7-1.1,2.2-1.1c0.6,0,1,0.1,1.2,0.2c0.2,0.1,0.3,0.4,0.4,0.9l0.5,9.1V343c0,0.3,0,0.6,0,0.7
		c-0.1,0.3-0.5,0.4-1.2,0.4c-1.3,0-2.1-0.4-2.4-1.1l-6-12.6l0,12.5c0,0.4,0,0.6,0,0.7c-0.1,0.3-0.5,0.4-1.2,0.4
		C164.6,344.1,163.6,343.7,163.6,342.9z"/>
</g>
<g>
	<g>
		<path d="M66.4,311.5c2.3-3.4,4.7-7,7.1-10.4c2.6-3.8,5-8.4,9.1-11c11.7-7.8,12.7,7.4,17.4,13.4c2.4,3.1,7.2,5.2,10.9,2.8
			c2.1-1.4,2.5-3.7,3.1-6c1.2-4.4,2.9-8.5,5.7-12c3.7-4.7,8.5-7.2,13.4-2.2c2.6,2.7,4,6.1,6,9.3c2.5,4.1,6.3,8.7,11.7,8.5
			c10.6-0.3,10.5-16.5,20.1-17.2c1.9-0.1,1.9-3.1,0-3c-4.2,0.3-7,3-9.4,6.4c-3.1,4.5-7.2,13.9-14.2,10c-6.6-3.6-7.7-12.8-13.5-17.4
			c-4.5-3.6-9.6-3-13.7,0.9c-2.5,2.4-4.6,5.3-6.1,8.5c-0.8,1.5-1.4,3.1-2,4.6c-1,3.1-0.6,4.1-3.6,6.1c-1.3,1.8-2.7,2-4.2,0.8
			c-1.4-1.1-2.4-2.5-3.1-4c-0.9-1.8-1.4-3.9-2.2-5.8c-1.1-2.5-2.4-5-4.7-6.7c-13.2-9-24.8,15.3-30.1,23.1
			C62.8,311.5,65.4,313,66.4,311.5L66.4,311.5z"/>
	</g>
</g>
<rect x="15.3" y="364.9" fill="none" width="193.3" height="110"/>
<text transform="matrix(1 0 0 1 19.7237 373.5444)" font-family="'ArialMT'" font-size="12.0972">Ditt värmesystem har för närvarande </text>
<text transform="matrix(1 0 0 1 20.7325 388.062)" font-family="'ArialMT'" font-size="12.0972">stora variationer i innomhus värmen </text>
<text transform="matrix(1 0 0 1 19.0181 402.5772)" font-family="'ArialMT'" font-size="12.0972">beroende på vädret. Klicka här för att </text>
<text transform="matrix(1 0 0 1 17.2041 417.0947)" font-family="'ArialMT'" font-size="12.0972">läsa mera om hur man åtgärdar detta. </text>
<text transform="matrix(1 0 0 1 20.1265 446.127)" font-family="'ArialMT'" font-size="12.0972">Besparingspotensialen för att korrig</text>
<text transform="matrix(1 0 0 1 200.1739 446.127)" font-family="'ArialMT'" font-size="12.0972">-</text>
<text transform="matrix(1 0 0 1 62.7686 460.6445)" font-family="'ArialMT'" font-size="12.0972">era detta är ca 10%.</text>
</svg>
