<?xml version="1.0" encoding="utf-8"?>
<!-- Generator: Adobe Illustrator 18.1.0, SVG Export Plug-In . SVG Version: 6.00 Build 0)  -->
<svg version="1.0" id="Layer_1" xmlns="http://www.w3.org/2000/svg" xmlns:xlink="http://www.w3.org/1999/xlink" x="0px" y="0px"
	 viewBox="0 0 132 132" enable-background="new 0 0 132 132" xml:space="preserve">
<g>
	<path fill="#FFFFFF" stroke="#010101" stroke-width="2" stroke-miterlimit="10" d="M118.6,130.2H14c-6.6,0-12-5.4-12-12V13.6
		c0-6.6,5.4-12,12-12h104.6c6.6,0,12,5.4,12,12v104.6C130.6,124.8,125.2,130.2,118.6,130.2z"/>
</g>
<circle cx="66" cy="65.4" r="54.2"/>
<g>
	<path fill="#FFFFFF" d="M58.7,34.5c0-4.6,2.5-6.8,7.6-6.8s7.6,2.3,7.6,6.8c0,2.2-0.6,3.9-1.9,5.1c-1.3,1.2-3.2,1.8-5.7,1.8
		C61.3,41.4,58.7,39.1,58.7,34.5z M73.3,99.1h-14V47.8h14V99.1z"/>
</g>
</svg>
