<?xml version="1.0" encoding="utf-8"?>
<!-- Generator: Adobe Illustrator 18.1.0, SVG Export Plug-In . SVG Version: 6.00 Build 0)  -->
<svg version="1.0" id="Layer_1" xmlns="http://www.w3.org/2000/svg" xmlns:xlink="http://www.w3.org/1999/xlink" x="0px" y="0px"
	 viewBox="0 0 47.2 33.9" enable-background="new 0 0 47.2 33.9" xml:space="preserve">
<g>
	<path fill="none" stroke="#010101" stroke-miterlimit="10" d="M13,20.4c7.1-3.5,9.7-8,6.2-2.1s-10.1,10.3-3.5,5.9
		c1.1-0.7,2.1-1.3,2.9-1.9c4.4-2.7,6-3.1,6-3.1"/>
	<path fill="none" stroke="#010101" stroke-miterlimit="10" d="M2.5,28.1c4.2-2.2,5.6-4.9,3.6-1.3s-5.8,6.2-2,3.6
		c0.6-0.4,1.2-0.8,1.7-1.2c2.5-1.7,3.5-2,3.5-2"/>
	<path fill="none" stroke="#010101" stroke-miterlimit="10" d="M27.8,9.5C39.3,5.2,44-1.4,37.7,7.2s-17.1,14.4-6.3,8.6
		c1.8-1,3.4-1.8,4.8-2.5C43.3,9.9,46,9.5,46,9.5"/>
</g>
</svg>
