<?xml version="1.0" encoding="utf-8"?>
<!-- Generator: Adobe Illustrator 18.1.0, SVG Export Plug-In . SVG Version: 6.00 Build 0)  -->
<svg version="1.0" id="Layer_1" xmlns="http://www.w3.org/2000/svg" xmlns:xlink="http://www.w3.org/1999/xlink" x="0px" y="0px"
	 viewBox="0 0 132 132" enable-background="new 0 0 132 132" xml:space="preserve">
<g>
	<g>
		<rect x="43.8" y="28.6" fill="#818181" width="48.5" height="83.6"/>
		<g>
			<rect x="48.5" y="35" fill="#FFFFFF" width="6.1" height="8.1"/>
			<rect x="56.7" y="35" fill="#FFFFFF" width="6.1" height="8.1"/>
			<rect x="64.8" y="35" fill="#FFFFFF" width="6.1" height="8.1"/>
			<rect x="72.9" y="35" fill="#FFFFFF" width="6.1" height="8.1"/>
			<rect x="81" y="35" fill="#FFFFFF" width="6.1" height="8.1"/>
		</g>
		<g>
			<rect x="48.6" y="49.6" fill="#FFFFFF" width="6.1" height="8.1"/>
			<rect x="56.8" y="49.6" fill="#FFFFFF" width="6.1" height="8.1"/>
			<rect x="64.9" y="49.6" fill="#FFFFFF" width="6.1" height="8.1"/>
			<rect x="72.9" y="49.6" fill="#FFFFFF" width="6.1" height="8.1"/>
			<rect x="81" y="49.6" fill="#FFFFFF" width="6.1" height="8.1"/>
		</g>
		<g>
			<rect x="48.5" y="65.3" fill="#FFFFFF" width="6.1" height="8.1"/>
			<rect x="56.7" y="65.3" fill="#FFFFFF" width="6.1" height="8.1"/>
			<rect x="64.8" y="65.3" fill="#FFFFFF" width="6.1" height="8.1"/>
			<rect x="72.9" y="65.3" fill="#FFFFFF" width="6.1" height="8.1"/>
			<rect x="81" y="65.3" fill="#FFFFFF" width="6.1" height="8.1"/>
		</g>
		<g>
			<rect x="48.6" y="79.9" fill="#FFFFFF" width="6.1" height="8.1"/>
			<rect x="56.8" y="79.9" fill="#FFFFFF" width="6.1" height="8.1"/>
			<rect x="64.9" y="79.9" fill="#FFFFFF" width="6.1" height="8.1"/>
			<rect x="73" y="79.9" fill="#FFFFFF" width="6.1" height="8.1"/>
			<rect x="81.1" y="79.9" fill="#FFFFFF" width="6.1" height="8.1"/>
		</g>
		<polygon fill="#F26522" points="39.9,28.6 96.1,28.6 68,19.4 		"/>
		<rect x="64.2" y="100.8" fill="#A97C50" width="8.1" height="11.4"/>
		<rect x="65.2" y="101.8" fill="#FFFFFF" width="6.1" height="8.1"/>
	</g>
</g>
</svg>
