<?xml version="1.0" encoding="utf-8"?>
<!-- Generator: Adobe Illustrator 18.1.0, SVG Export Plug-In . SVG Version: 6.00 Build 0)  -->
<svg version="1.0" id="Layer_1" xmlns="http://www.w3.org/2000/svg" xmlns:xlink="http://www.w3.org/1999/xlink" x="0px" y="0px"
	 viewBox="0 0 131.8 131.8" enable-background="new 0 0 131.8 131.8" xml:space="preserve">
<g>
	<g>
		<path fill="#FFFFFF" stroke="#010101" stroke-width="5.5725" stroke-miterlimit="10" d="M75.7,85.6c0-0.2,0-0.3,0-0.5V22
			c0-4.3-3.6-7.9-7.9-7.9s-7.9,3.6-7.9,7.9v63.1c0,0.2,0,0.3,0,0.5c-4.4,2.7-7.3,7.5-7.3,12.9c0,8.4,6.8,15.2,15.2,15.2
			c8.4,0,15.2-6.8,15.2-15.2C83,93.1,80.1,88.3,75.7,85.6z"/>
		<path fill="#ED2224" d="M70.1,91V55.2c0-0.9-0.7-1.6-1.6-1.6h-1.3c-0.9,0-1.6,0.7-1.6,1.6V91c-3.2,1-5.6,4-5.6,7.5
			c0,4.4,3.5,7.9,7.9,7.9s7.9-3.5,7.9-7.9C75.7,95,73.4,92,70.1,91z"/>
	</g>
</g>
</svg>
