<?xml version="1.0" encoding="utf-8"?>
<!-- Generator: Adobe Illustrator 18.1.0, SVG Export Plug-In . SVG Version: 6.00 Build 0)  -->
<svg version="1.0" id="Layer_1" xmlns="http://www.w3.org/2000/svg" xmlns:xlink="http://www.w3.org/1999/xlink" x="0px" y="0px"
	 viewBox="0 0 131.8 131.8" enable-background="new 0 0 131.8 131.8" xml:space="preserve">
<g>
	<g>
		<path fill="#FFFFFF" stroke="#010101" stroke-width="2" stroke-miterlimit="10" d="M118.1,130.2H13.5c-6.6,0-12-5.4-12-12V13.6
			c0-6.6,5.4-12,12-12h104.6c6.6,0,12,5.4,12,12v104.6C130.1,124.8,124.7,130.2,118.1,130.2z"/>
	</g>
	<g>
		<g>
			<path fill="#FFFFFF" d="M15.2,90.9c2.2-5.4,4.6-11.1,6.9-16.5c2.5-6,4.9-13.3,8.8-17.4c11.4-12.3,12.3,11.7,16.9,21.2
				c2.3,4.9,7,8.2,10.6,4.4c2-2.2,2.4-5.9,3-9.5c1.2-7,2.8-13.5,5.5-19c3.6-7.4,8.3-11.4,13-3.5c2.5,4.3,3.9,9.7,5.8,14.7
				c2.4,6.5,6.1,13.8,11.4,13.5c10.3-0.5,10.2-26.1,19.5-27.2c1.8-0.2,1.8-4.9,0-4.7c-4.1,0.5-6.8,4.7-9.1,10.1
				c-3,7.1-7,22-13.8,15.8c-6.4-5.7-7.5-20.3-13.1-27.5c-4.4-5.7-9.3-4.7-13.3,1.4c-2.4,3.8-4.5,8.4-5.9,13.5
				c-0.8,2.4-1.4,4.9-1.9,7.3c-1,4.9-0.6,6.5-3.5,9.7c-1.3,2.8-2.6,3.2-4.1,1.3c-1.4-1.7-2.3-4-3-6.3c-0.9-2.8-1.4-6.2-2.1-9.2
				c-1.1-4-2.3-7.9-4.6-10.6C29.4,38,18.1,76.5,13,88.8C11.7,90.9,14.3,93.3,15.2,90.9L15.2,90.9z"/>
		</g>
	</g>
	<g>
		<path fill="none" stroke="#010101" stroke-width="5.5725" stroke-miterlimit="10" d="M75.7,85.6c0-0.2,0-0.3,0-0.5V22
			c0-4.3-3.6-7.9-7.9-7.9s-7.9,3.6-7.9,7.9v63.1c0,0.2,0,0.3,0,0.5c-4.4,2.7-7.3,7.5-7.3,12.9c0,8.4,6.8,15.2,15.2,15.2
			c8.4,0,15.2-6.8,15.2-15.2C83,93.1,80.1,88.3,75.7,85.6z"/>
		<path fill="#ED2224" d="M70.1,91V55.2c0-0.9-0.7-1.6-1.6-1.6h-1.3c-0.9,0-1.6,0.7-1.6,1.6V91c-3.2,1-5.6,4-5.6,7.5
			c0,4.4,3.5,7.9,7.9,7.9s7.9-3.5,7.9-7.9C75.7,95,73.4,92,70.1,91z"/>
	</g>
</g>
</svg>
