<?xml version="1.0" encoding="utf-8"?>
<!-- Generator: Adobe Illustrator 18.1.0, SVG Export Plug-In . SVG Version: 6.00 Build 0)  -->
<svg version="1.1" xmlns="http://www.w3.org/2000/svg" xmlns:xlink="http://www.w3.org/1999/xlink" x="0px" y="0px"
	 viewBox="0 0 150 150" enable-background="new 0 0 150 150" xml:space="preserve">
<g id="Layer_2">
</g>
<g id="Layer_1">
	<path d="M113.7,87c0.1-0.3,0.1-0.6-0.1-1c-0.2-0.5-0.4-0.9-0.5-1.4c-2.1-5.9-3.9-11.8-4.9-18c-0.2-1-0.4-2.1-0.9-2.9
		c-0.7-1-1.7-1.9-2.7-2.7c-0.4-0.3-1-0.4-1.5-0.4c-1.3,0-1.5-0.1-1.7-1.4c0-0.1,0-0.2,0-0.3c-0.2-2.8,0-5.5,0.2-8.3
		c0.2-2.5,0.1-5.1,0.1-7.7c0-2.8,0-5.7,0.1-8.5c0-1.6,0.3-3.2,0.3-4.8c0-1.1-0.3-2.2-0.3-3.4c-0.2-4.3-0.4-7.3-0.5-11.6
		c-0.1-2.3-0.6-4.4-1.9-6.3c-0.9-1.3-2-2-3.5-2.2C95.4,6.1,95,6,94.7,6c-0.7,0-1.3,0-2,0c-2,0-3.2,1.6-4.3,3.2
		c-0.3,0.5-0.5,1-0.7,1.5c-0.6,1-0.8,2.1-0.7,3.2c0.1,2.3,0.3,4.5,0.4,6.7c0.2,2.8,0.3,4.3,0.5,7.1c0,0.7,0,1.5-0.3,2.2
		c-0.4,0.9-0.6,1.7-0.6,2.6c-0.1,3.8-0.2,7.6-0.4,11.4c0,1.1-0.1,2.2-0.2,3.3c-0.2,1.6-0.7,3-1.8,4.2c-0.6,0.7-1.4,0.8-2.2,0.6
		c-1.5-0.4-3-0.9-4.2-2c-1-0.9-2.2-1.4-3.5-1.6c-2-0.2-3.8,0.2-5,2c-0.3,0.5-0.7,1-1.1,1.5c-1.2,1.5-2.9,2.4-4.7,3
		c-0.2,0.1-0.5,0.1-0.7,0c-1.2-0.1-2.4-0.3-3.6-0.4c-2.4-0.3-4.5,0.2-6.2,2.1c-0.8,0.9-1.6,1.7-2.4,2.5c-1,1-2.2,1.6-3.7,1.4
		c-0.6-0.1-1.4,0-2,0.2c-1.1,0.4-2.2,0.9-3.3,1.4c-2.1,1-3.6,2.7-4.2,5c-0.5,1.8-1,3.7-1.3,5.5c-0.4,2.2-0.7,4.4-1,6.6
		c-0.2,2.3,0.1,4.6,0.5,6.8c0.1,0.6,0.2,0.8,0.5,0.9c1.2,4.6,2.1,8.4,2.7,10.9c1.4,6.1,2.1,9.8,4.3,15.2c0.2,0.4,0.3,0.7,0.4,1h0
		c0,0,0,0,0,0c0.4,1.1,0.7,1.7,1,2.1c0.7,1.2,1.7,2.2,3.1,3.1c3.2,5.4,3.1,16.7,3.9,18.8c3.1,9,35.6,9.1,44.3-1.9
		c4.2-5.3,0.5-15.3,2.9-26c4.1-3.5,9-8.7,13.4-15.8c1.5-2.3,1.6-4.7,1.6-4.7C114,88.5,113.8,87.6,113.7,87z"/>
</g>
</svg>
